<svg width="24" height="24" viewBox="0 0 24 24" fill="none" xmlns="http://www.w3.org/2000/svg">
<rect opacity="0.01" width="24" height="24" fill="black"/>
<path d="M23.9787 11.996C23.9787 18.5905 18.6329 23.9363 12.0384 23.9363C5.44394 23.9363 0.0981445 18.5905 0.0981445 11.996C0.0981445 5.40145 5.44394 0.0556641 12.0384 0.0556641C18.6329 0.055664 23.9787 5.40145 23.9787 11.996Z" fill="#4C67EF"/>
<path d="M17.9998 6.27397L17.9994 4L16.375 5.67946C16.3558 5.6993 15.5885 6.49228 14.6118 7.50269C14.5501 7.24424 14.4613 6.98933 14.3454 6.74147C13.8758 5.73591 13.0192 4.96322 11.9336 4.56585C10.8481 4.16847 9.66342 4.19361 8.59795 4.63729C7.53248 5.08053 6.71374 5.88895 6.29269 6.91347C6.04221 7.52254 6.00623 8.11485 6.00436 8.6141C5.99875 9.94911 6.00016 16.6586 6.00016 16.726L6.00062 19L7.625 17.3205C7.64416 17.3007 8.41149 16.5077 9.38818 15.4973C9.44986 15.7558 9.53865 16.0107 9.65455 16.2585C10.1242 17.2641 10.9812 18.0368 12.0668 18.4342C12.5785 18.6216 13.1117 18.7151 13.6449 18.7147C14.2426 18.7147 14.8394 18.5969 15.4025 18.3627C16.468 17.9195 17.2867 17.1111 17.7078 16.0865C17.9582 15.4775 17.9937 14.8847 17.9961 14.3855C18.0012 13.0509 17.9998 6.34145 17.9998 6.27397ZM7.87361 8.62071C7.87502 8.26612 7.89558 7.89124 8.0353 7.5512C8.27597 6.96595 8.74328 6.50419 9.35173 6.25104C9.67371 6.11696 10.0144 6.04993 10.3555 6.04993C10.6597 6.04993 10.9644 6.10329 11.257 6.21046C11.8771 6.43759 12.3664 6.87863 12.6346 7.45329C12.9028 8.02752 12.9183 8.66614 12.6776 9.25139C12.5365 9.59451 12.2729 9.89486 12.0336 10.1432C11.464 10.7346 9.37416 12.8952 7.86894 14.4521C7.86941 12.3558 7.87034 9.44897 7.87361 8.62071ZM16.1264 14.3793C16.125 14.7339 16.1044 15.1088 15.9647 15.4488C15.724 16.034 15.2567 16.4958 14.6483 16.749C14.0398 17.0021 13.3631 17.0167 12.743 16.7895C12.1229 16.5624 11.6336 16.1214 11.3654 15.5467C11.0971 14.9725 11.0817 14.3339 11.3224 13.7486C11.4635 13.4055 11.7271 13.1051 11.9663 12.8568C12.536 12.2654 14.6258 10.1048 16.131 8.54794C16.1306 10.6442 16.1301 13.551 16.1264 14.3793Z" fill="white"/>
</svg>
